<svg width="695" height="695" viewBox="0 0 695 695" fill="none" xmlns="http://www.w3.org/2000/svg">
<path fill-rule="evenodd" clip-rule="evenodd" d="M347.5 0H0V347.5V695H347.5H695V347.5V0H347.5ZM347.5 0C341.688 0 335.904 0.143066 330.155 0.426025C309.471 1.44482 293.527 19.0396 294.545 39.7251C295.564 60.4106 313.158 76.354 333.845 75.3354C338.365 75.1128 342.918 75 347.5 75C497.998 75 620 197.002 620 347.5C620 497.998 497.998 620 347.5 620C197.002 620 75 497.998 75 347.5C75 237.353 140.354 142.39 234.561 99.4226L235.029 99.2056C217.26 87.7185 205.5 67.7327 205.5 45C205.5 39.7144 206.137 34.5771 207.336 29.6609C206.023 30.0916 204.723 30.5991 203.439 31.1851C83.4922 85.8916 0 206.906 0 347.5C0 539.419 155.582 695 347.5 695C539.419 695 695 539.419 695 347.5C695 155.581 539.419 0 347.5 0Z" fill="#fff"/>
</svg>
